<svg width="24" height="24" viewBox="0 0 24 24" fill="none" xmlns="http://www.w3.org/2000/svg">
<path d="M15.3895 5.14875L16.7995 7.96875C16.9895 8.35875 17.4995 8.72875 17.9295 8.80875L20.4795 9.22875C22.1095 9.49875 22.4895 10.6788 21.3195 11.8588L19.3295 13.8488C18.9995 14.1788 18.8095 14.8288 18.9195 15.2988L19.4895 17.7588C19.9395 19.6988 18.8995 20.4588 17.1895 19.4388L14.7995 18.0188C14.3695 17.7588 13.6495 17.7588 13.2195 18.0188L10.8295 19.4388C9.11945 20.4488 8.07945 19.6988 8.52945 17.7588L9.09945 15.2988C9.18945 14.8188 8.99945 14.1688 8.66945 13.8388L6.67945 11.8488C5.50945 10.6788 5.88945 9.49875 7.51945 9.21875L10.0695 8.79875C10.4995 8.72875 11.0095 8.34875 11.1995 7.95875L12.6095 5.13875C13.3795 3.61875 14.6195 3.61875 15.3895 5.14875Z" fill="#292D32"/>
<path d="M8 5.75H2C1.59 5.75 1.25 5.41 1.25 5C1.25 4.59 1.59 4.25 2 4.25H8C8.41 4.25 8.75 4.59 8.75 5C8.75 5.41 8.41 5.75 8 5.75Z" fill="#292D32"/>
<path d="M5 19.75H2C1.59 19.75 1.25 19.41 1.25 19C1.25 18.59 1.59 18.25 2 18.25H5C5.41 18.25 5.75 18.59 5.75 19C5.75 19.41 5.41 19.75 5 19.75Z" fill="#292D32"/>
<path d="M3 12.75H2C1.59 12.75 1.25 12.41 1.25 12C1.25 11.59 1.59 11.25 2 11.25H3C3.41 11.25 3.75 11.59 3.75 12C3.75 12.41 3.41 12.75 3 12.75Z" fill="#292D32"/>
</svg>
