<svg width="47" height="46" viewBox="0 0 47 46" fill="none" xmlns="http://www.w3.org/2000/svg">
<path d="M12.3898 3.34015C12.3898 1.92015 13.4398 0.760192 14.9698 0.760192L18.1798 0.760193C19.5998 0.760193 20.7598 1.92015 20.7598 3.34015L20.7598 9.14014" stroke="#292D32" stroke-width="1.5" stroke-linecap="round" stroke-linejoin="round"/>
<path d="M20.7598 9.13013L14.9598 9.13013C13.9998 9.13013 13.2398 8.68011 12.7998 7.99011" stroke="#292D32" stroke-width="1.5" stroke-linecap="round" stroke-linejoin="round"/>
<path d="M20.7598 9.13025C20.7598 15.1802 19.6298 16.1802 16.2298 18.2002" stroke="#292D32" stroke-width="1.5" stroke-linecap="round" stroke-linejoin="round"/>
<path d="M9.13062 9.13013L3.33062 9.13013C1.80062 9.13013 0.750625 7.97011 0.750625 6.55011L0.750625 3.33008C0.750625 1.91008 1.80063 0.750121 3.33063 0.750122L6.56062 0.750122C7.98062 0.750122 9.14063 1.91008 9.14063 3.33008L9.14062 9.13013" stroke="#292D32" stroke-width="1.5" stroke-linecap="round" stroke-linejoin="round"/>
<path d="M9.13086 9.13025C9.13086 15.1802 8.00086 16.1802 4.60086 18.2002" stroke="#292D32" stroke-width="1.5" stroke-linecap="round" stroke-linejoin="round"/>
</svg>
