<svg width="22" height="22" viewBox="0 0 22 22" fill="none" xmlns="http://www.w3.org/2000/svg">
<path d="M20.75 8.75V13.75C20.75 18.75 18.75 20.75 13.75 20.75H7.75C2.75 20.75 0.75 18.75 0.75 13.75V7.75C0.75 2.75 2.75 0.75 7.75 0.75H12.75" stroke="#292D32" stroke-width="1.5" stroke-linecap="round" stroke-linejoin="round"/>
<path d="M20.75 8.75H16.75C13.75 8.75 12.75 7.75 12.75 4.75V0.75L20.75 8.75Z" stroke="#292D32" stroke-width="1.5" stroke-linecap="round" stroke-linejoin="round"/>
<path opacity="0.4" fill-rule="evenodd" clip-rule="evenodd" d="M7.06975 10.75H9.71975C9.98975 10.75 10.3298 10.93 10.4698 11.15L11.5998 12.85C11.8298 13.19 11.7798 13.7 11.4898 13.99L9.02975 16.45C8.67975 16.8 8.09975 16.8 7.74975 16.45L5.28975 13.99C4.99975 13.7 4.94975 13.19 5.17975 12.85L6.30975 11.15C6.46975 10.93 6.80975 10.75 7.06975 10.75Z" stroke="#292D32" stroke-width="1.5" stroke-miterlimit="10" stroke-linecap="round" stroke-linejoin="round"/>
</svg>
