<svg width="22" height="22" viewBox="0 0 22 22" fill="none" xmlns="http://www.w3.org/2000/svg">
<path opacity="0.4" d="M15.75 12.15V15.15C15.75 19.15 14.15 20.75 10.15 20.75H6.35C2.35 20.75 0.75 19.15 0.75 15.15V11.35C0.75 7.35 2.35 5.75 6.35 5.75H9.35" stroke="#292D32" stroke-width="1.5" stroke-linecap="round" stroke-linejoin="round"/>
<path d="M15.7496 12.15H12.5496C10.1496 12.15 9.34961 11.35 9.34961 8.95V5.75L15.7496 12.15Z" stroke="#292D32" stroke-width="1.5" stroke-linecap="round" stroke-linejoin="round"/>
<path opacity="0.4" d="M5.75 3.75C5.75 2.09 7.09 0.75 8.75 0.75H14.75" stroke="#292D32" stroke-width="1.5" stroke-linecap="round" stroke-linejoin="round"/>
<path opacity="0.4" d="M20.7495 6.75V12.94C20.7495 14.49 19.4895 15.75 17.9395 15.75" stroke="#292D32" stroke-width="1.5" stroke-linecap="round" stroke-linejoin="round"/>
<path d="M20.75 6.75H17.75C15.5 6.75 14.75 6 14.75 3.75V0.75L20.75 6.75Z" stroke="#292D32" stroke-width="1.5" stroke-linecap="round" stroke-linejoin="round"/>
</svg>
