<svg width="22" height="22" viewBox="0 0 22 22" fill="none" xmlns="http://www.w3.org/2000/svg">
<path d="M13.75 7.11979V6.15979C13.75 3.17979 11.68 2.03979 9.16 3.61979L6.24 5.44979C5.92 5.63979 5.55 5.74979 5.18 5.74979H3.75C1.75 5.74979 0.75 6.74979 0.75 8.74979V12.7498C0.75 14.7498 1.75 15.7498 3.75 15.7498H5.75" stroke="#292D32" stroke-width="1.5" stroke-linecap="round" stroke-linejoin="round"/>
<path opacity="0.4" d="M9.16016 17.8802C11.6802 19.4602 13.7502 18.3102 13.7502 15.3402V11.7002" stroke="#292D32" stroke-width="1.5" stroke-linecap="round" stroke-linejoin="round"/>
<path opacity="0.4" d="M17.56 8.16992C18.46 10.3199 18.19 12.8299 16.75 14.7499" stroke="#292D32" stroke-width="1.5" stroke-linecap="round" stroke-linejoin="round"/>
<path opacity="0.4" d="M19.9001 6.5498C21.3701 10.0398 20.9301 14.1198 18.5801 17.2498" stroke="#292D32" stroke-width="1.5" stroke-linecap="round" stroke-linejoin="round"/>
<path d="M20.75 0.75L0.75 20.75" stroke="#292D32" stroke-width="1.5" stroke-linecap="round" stroke-linejoin="round"/>
</svg>
